<svg width="17" height="17" viewBox="0 0 17 17" fill="none" xmlns="http://www.w3.org/2000/svg">
<rect x="0.501511" y="0.588685" width="15.8479" height="15.8479" rx="7.92396" fill="#182F40"/>
<rect x="0.501511" y="0.588685" width="15.8479" height="15.8479" rx="7.92396" stroke="#182F40" stroke-width="0.54648"/>
<path d="M8.42529 13.4742C11.139 13.4742 13.3868 11.2312 13.3868 8.51265C13.3868 5.79893 11.139 3.5511 8.42049 3.5511C5.70677 3.5511 3.46375 5.79893 3.46375 8.51265C3.46375 11.2312 5.71157 13.4742 8.42529 13.4742ZM8.42529 12.7057C6.35518 12.7057 4.60207 11.1543 4.28507 9.16106C4.31388 9.16586 4.3379 9.16586 4.36672 9.16586C4.88064 9.16586 5.22166 8.72878 5.22166 8.06116C5.22166 7.84983 5.26008 7.78739 5.39937 7.72015L5.70677 7.57605C5.87007 7.4944 6.01897 7.55684 6.11983 7.69613L6.69139 8.53186C7.21973 9.29554 7.75767 9.60774 8.25238 9.60774C8.72788 9.60774 9.04969 9.30515 9.04969 8.83925C9.04969 8.56548 8.9104 8.33013 8.68466 8.18124C8.54056 8.08037 8.58379 7.9651 8.71347 7.9651C9.88542 7.9651 10.505 7.54243 10.505 6.69229C10.505 5.56838 9.55401 5.50594 9.55401 5.21776C9.55401 5.04485 9.77014 4.94879 9.91904 4.60297C11.4848 5.21296 12.6183 6.74513 12.6183 8.51265C12.6183 8.95453 12.5463 9.382 12.4166 9.78545C12.1669 9.57892 11.9651 9.49247 11.7298 9.49247C11.5473 9.49247 11.4464 9.5405 11.3455 9.57412C11.2447 9.60294 11.1966 9.55971 11.1822 9.47326C11.1342 9.12263 10.9133 8.98335 10.5578 8.98335H10.3081C10.0151 8.98335 9.77975 9.13704 9.60204 9.41082L9.52519 9.53089C9.40511 9.71821 9.29945 9.87191 9.19378 9.97277C9.09291 10.064 9.01607 10.1073 8.81914 10.1697L8.5982 10.2369C8.26199 10.3426 8.16112 10.6356 8.25238 10.9622L8.48293 11.7739C8.56938 12.0717 8.74709 12.2254 9.03528 12.2254C9.16016 12.2254 9.31385 12.1774 9.47235 12.1005L9.5444 12.0669C9.65487 12.0141 9.73652 11.9949 9.81817 11.9949C10.0055 11.9949 10.1304 12.0861 10.2745 12.2686C9.71731 12.5472 9.08811 12.7057 8.42529 12.7057Z" fill="white"/>
</svg>
